<svg width="10" height="10" viewBox="0 0 10 10" fill="none" xmlns="http://www.w3.org/2000/svg">
<path d="M4.49411 0.209501C4.6283 0.0753577 4.81026 0 5 0C5.18974 0 5.3717 0.0753577 5.50589 0.209501L9.79914 4.50275C9.92948 4.6377 10.0016 4.81845 9.99997 5.00606C9.99834 5.19368 9.92309 5.37314 9.79042 5.50581C9.65775 5.63848 9.47829 5.71373 9.29068 5.71536C9.10306 5.71699 8.92231 5.64487 8.78736 5.51453L5 1.72716L1.21264 5.51453C1.07768 5.64487 0.896937 5.71699 0.709324 5.71536C0.521711 5.71373 0.342245 5.63848 0.209578 5.50581C0.0769103 5.37314 0.00165735 5.19368 2.70492e-05 5.00606C-0.00160325 4.81845 0.0705196 4.6377 0.200861 4.50275L4.49411 0.209501ZM5 6.02041L1.21264 9.80778C1.07768 9.93812 0.896937 10.0102 0.709324 10.0086C0.521711 10.007 0.342245 9.93173 0.209578 9.79906C0.0769103 9.66639 0.00165735 9.48693 2.70492e-05 9.29931C-0.00160325 9.1117 0.0705196 8.93095 0.200861 8.796L4.49411 4.50275C4.6283 4.36861 4.81026 4.29325 5 4.29325C5.18974 4.29325 5.3717 4.36861 5.50589 4.50275L9.79914 8.796C9.92948 8.93095 10.0016 9.1117 9.99997 9.29931C9.99834 9.48693 9.92309 9.66639 9.79042 9.79906C9.65775 9.93173 9.47829 10.007 9.29068 10.0086C9.10306 10.0102 8.92231 9.93812 8.78736 9.80778L5 6.02041Z" fill="#0D0D0D"/>
</svg>
