<svg width="10" height="10" viewBox="0 0 10 10" fill="none" xmlns="http://www.w3.org/2000/svg">
<path d="M5.498 9.79997C5.36359 9.9339 5.1815 10.009 4.99177 10.0086C4.80203 10.0083 4.62019 9.93267 4.48623 9.79831L0.200051 5.49799C0.0699324 5.36282 -0.00189232 5.18196 4.65359e-05 4.99435C0.00198635 4.80674 0.0775353 4.62739 0.21042 4.49495C0.343306 4.3625 0.522897 4.28754 0.710512 4.28622C0.898127 4.2849 1.07876 4.35732 1.21349 4.48788L4.99461 8.28148L8.78821 4.50036C8.92338 4.37024 9.10424 4.29842 9.29185 4.30035C9.47946 4.30229 9.6588 4.37784 9.79125 4.51073C9.9237 4.64361 9.99866 4.8232 9.99998 5.01082C10.0013 5.19843 9.92888 5.37906 9.79832 5.5138L5.498 9.79997ZM5.00168 3.98823L8.79528 0.207114C8.93045 0.0769948 9.11131 0.00517007 9.29892 0.00710988C9.48653 0.00904874 9.66588 0.0845977 9.79832 0.217484C9.93077 0.350369 10.0057 0.529959 10.0071 0.717574C10.0084 0.90519 9.93595 1.08582 9.80539 1.22056L5.50507 5.50673C5.37067 5.64065 5.18857 5.71571 4.99884 5.7154C4.8091 5.71508 4.62726 5.63943 4.4933 5.50506L0.207123 1.20475C0.0770042 1.06958 0.00517942 0.888713 0.00711828 0.701103C0.00905809 0.513493 0.0846071 0.33415 0.217492 0.201702C0.350378 0.0692534 0.529969 -0.00570432 0.717584 -0.00702512C0.905199 -0.00834687 1.08583 0.0640733 1.22057 0.194637L5.00168 3.98823Z" fill="#0D0D0D"/>
</svg>
